<svg xmlns="http://www.w3.org/2000/svg"
     viewBox="0 0 64 32" width="64" height="32"
     shape-rendering="crispEdges">
  <defs>
    <!-- Body face gradients (vertical: top→bottom) -->
    <linearGradient id="gSide"  x1="0" y1="0" x2="0" y2="1">
      <stop offset="0%"   stop-color="#9D7700"/>
      <stop offset="100%" stop-color="#564200"/>
    </linearGradient>
    <linearGradient id="gFront" x1="0" y1="0" x2="0" y2="1">
      <stop offset="0%"   stop-color="#C79700"/>
      <stop offset="100%" stop-color="#6D5300"/>
    </linearGradient>
    <linearGradient id="gBack"  x1="0" y1="0" x2="0" y2="1">
      <stop offset="0%"   stop-color="#C79700"/>
      <stop offset="100%" stop-color="#564200"/>
    </linearGradient>
    <linearGradient id="gLower" x1="0" y1="0" x2="0" y2="1">
      <stop offset="0%"   stop-color="#6D5300"/>
      <stop offset="100%" stop-color="#564200"/>
    </linearGradient>
    <!-- Body face gradients (horizontal) -->
    <linearGradient id="gTop"   x1="0" y1="0" x2="1" y2="0">
      <stop offset="0%"   stop-color="#967200"/>
      <stop offset="100%" stop-color="#3F3000"/>
    </linearGradient>
    <linearGradient id="gBot"   x1="0" y1="0" x2="1" y2="0">
      <stop offset="0%"   stop-color="#F7E200"/>
      <stop offset="100%" stop-color="#6D5300"/>
    </linearGradient>
    <!-- Head gradient -->
    <linearGradient id="gHead"  x1="0" y1="0" x2="0" y2="1">
      <stop offset="0%"   stop-color="#9D7700"/>
      <stop offset="50%"  stop-color="#6D5300"/>
      <stop offset="100%" stop-color="#564200"/>
    </linearGradient>
    <linearGradient id="gLeg"   x1="0" y1="0" x2="0" y2="1">
      <stop offset="0%"   stop-color="#6D5300"/>
      <stop offset="100%" stop-color="#564200"/>
    </linearGradient>
  </defs>

  <!-- ── HEAD (x=0–19) ──────────────────────────────────────────── -->

  <!-- Head top face (x=5–9, y=0–4) -->
  <rect x="5"  y="0" width="5" height="5" fill="#967200"/>
  <!-- Head bottom face (x=10–14, y=0–4) -->
  <rect x="10" y="0" width="5" height="5" fill="#6D5300"/>

  <!-- Head side faces (4 faces × 5px wide, y=5–8) -->
  <rect x="0"  y="5" width="5" height="4" fill="url(#gHead)"/>
  <rect x="5"  y="5" width="5" height="4" fill="url(#gHead)"/>
  <rect x="10" y="5" width="5" height="4" fill="url(#gHead)"/>
  <rect x="15" y="5" width="5" height="4" fill="url(#gHead)"/>

  <!-- Ear 1 (texOffset 0,10 — W=2 H=2 D=1) -->
  <rect x="0"  y="9"  width="6" height="3" fill="#6D5300"/>
  <!-- Ear 2 (texOffset 6,10) -->
  <rect x="6"  y="9"  width="6" height="3" fill="#6D5300"/>

  <!-- Head cheek/jaw row -->
  <rect x="0"  y="12" width="12" height="1" fill="#6D5300"/>

  <!-- Front leg UV regions (y=13–23, two interlocked sets) -->
  <rect x="8"  y="13" width="8" height="8"  fill="url(#gLeg)"/>
  <rect x="0"  y="15" width="8" height="9"  fill="url(#gLeg)"/>

  <!-- Snout / chin lower (y=24–27) -->
  <rect x="2"  y="24" width="6" height="2" fill="#6D5300"/>
  <rect x="0"  y="26" width="10" height="2" fill="#6D5300"/>

  <!-- ── BODY ───────────────────────────────────────────────────── -->

  <!-- Body TOP face (x=26–33, y=0–5) -->
  <rect x="26" y="0" width="8" height="6" fill="url(#gTop)"/>

  <!-- Body BOTTOM face (x=38–45 y=2–5; notch x=42–45 y=0–1) -->
  <rect x="38" y="2" width="8" height="4" fill="url(#gBot)"/>
  <rect x="42" y="0" width="4" height="2" fill="#F7E200"/>

  <!-- Body EAST flank (right side) -->
  <rect x="20" y="6" width="6" height="6" fill="url(#gSide)"/>
  <!-- Body NORTH front face -->
  <rect x="26" y="6" width="8" height="6" fill="url(#gFront)"/>
  <!-- Body WEST flank (left side) -->
  <rect x="34" y="6" width="6" height="6" fill="url(#gSide)"/>
  <!-- Body SOUTH back face -->
  <rect x="40" y="6" width="8" height="6" fill="url(#gBack)"/>

  <!-- Lower body / belly (x=20–39, y=12–21) -->
  <rect x="20" y="12" width="20" height="10" fill="url(#gLower)"/>

</svg>
